<?xml version="1.0" encoding="utf-8"?>
<!-- Svg Vector Icons : http://www.onlinewebfonts.com/icon -->
<!DOCTYPE svg PUBLIC "-//W3C//DTD SVG 1.1//EN" "http://www.w3.org/Graphics/SVG/1.1/DTD/svg11.dtd">
<svg version="1.1" xmlns="http://www.w3.org/2000/svg" xmlns:xlink="http://www.w3.org/1999/xlink" x="0px" y="0px" viewBox="0 0 1000 1000" enable-background="new 0 0 1000 1000" xml:space="preserve">
<metadata> Svg Vector Icons : http://www.onlinewebfonts.com/icon </metadata>
<g><g transform="translate(0.000000,511.000000) scale(0.100000,-0.100000)"><path d="M1239.6,4977.3c-418.8-101.3-803.1-411.9-991.9-803.2C89,3845.1,95.9,4098.2,102.8,50.3l6.9-3654.4l52.9-149.6c163.4-455.7,515.5-807.7,971.1-971.1l149.6-52.9l3654.4-6.9c4059.5-6.9,3787.9-16.1,4130.8,149.6c260,126.6,543.1,409.6,669.7,672c174.9,363.6,165.7,89.7,158.8,4156.1l-6.9,3636l-52.9,149.6c-163.4,455.6-515.5,807.8-971.2,971.1l-149.6,52.9l-3670.5,4.6C1916.2,5009.5,1354.7,5004.9,1239.6,4977.3z M2935.7,3493c156.5-43.7,177.2-105.9,177.2-566.1v-398.1l66.7-73.7l66.7-75.9l439.5-11.5c554.6-13.8,538.5-4.6,550-354.4c9.2-225.5,4.6-239.3-48.3-303.8l-57.5-66.7l-441.9-11.5l-441.9-11.5l-66.7-75.9l-66.7-73.6V1072c0-441.9-11.5-487.9-138.1-550c-99-50.6-359-55.2-471.8-9.2c-131.2,55.2-149.6,122-149.6,563.8v393.5l-66.7,73.6l-66.7,75.9l-441.9,11.5l-441.9,11.5l-55.2,64.4c-50.6,59.8-55.2,85.1-55.2,292.3c0,207.1,4.6,232.4,55.2,292.3l55.2,64.4l441.9,11.5l441.9,11.5l66.7,75.9l66.7,73.7v398.1c0,352.1,4.6,405,46,469.5c27.6,46,73.6,82.8,119.7,96.7C2622.7,3522.9,2829.8,3522.9,2935.7,3493z M8311.5,2319.3c73.6-69,94.3-140.4,94.3-319.9s-20.7-250.8-94.3-319.9c-52.9-48.3-62.1-48.3-1426.8-48.3H5513.1l-59.8,59.8c-73.6,73.6-94.4,170.3-80.5,379.7c11.5,138.1,23,172.6,78.2,230.1l64.4,66.7H6887C8249.4,2367.7,8258.6,2367.7,8311.5,2319.3z M7188.5-343.3c64.5-71.3,66.7-82.8,66.7-306.1c0-225.5-2.3-232.4-66.7-299.2c-66.7-64.4-73.6-66.7-301.5-66.7s-234.7,2.3-301.5,66.7c-64.5,66.7-66.7,73.6-66.7,306.1s2.3,241.6,64.4,299.2c87.4,82.8,105.9,87.5,336,80.5C7117.1-269.6,7126.3-271.9,7188.5-343.3z M2318.9-831.1c285.4-283.1,361.3-333.7,467.2-306.1c36.8,6.9,184.1,133.5,349.8,294.6c158.8,154.2,310.7,287.7,340.6,296.9c89.8,29.9,200.2-27.6,347.5-181.8c126.6-131.2,140.4-154.2,140.4-241.6c0-94.3-11.5-110.5-285.4-388.9c-165.7-168-294.6-317.6-301.5-354.4c-29.9-119.7,11.5-184.1,301.5-478.7c273.9-278.5,285.4-292.3,285.4-386.6c0-87.5-13.8-112.8-131.2-237.1c-269.2-280.7-315.3-273.8-685.8,96.7c-407.3,409.6-425.7,409.6-840-9.2c-356.7-361.3-405-368.2-672-87.5c-119.7,124.3-133.5,149.6-133.5,237.1c0,92.1,11.5,108.1,285.4,386.6c165.7,168,294.6,317.6,301.5,354.4c29.9,119.7-11.5,184.1-301.5,478.7c-273.9,278.4-285.4,292.2-285.4,386.6c0,87.4,13.8,112.8,133.5,237C1897.8-458.3,1950.7-465.2,2318.9-831.1z M8318.4-1473.2c69-59.9,75.9-80.5,82.8-230.1c11.5-211.7-9.2-317.6-75.9-384.3l-55.2-55.2H6891.6H5513.1l-59.8,59.8c-71.4,71.3-96.7,204.8-78.3,407.3c11.5,122,23,151.9,82.8,204.8l71.4,64.4H6887h1357.8L8318.4-1473.2z M7200-2610c50.6-59.8,55.2-85.1,55.2-294.6c0-126.6-11.5-250.8-25.3-278.5c-36.8-69-163.4-110.5-345.2-110.5c-186.4,0-301.5,43.7-340.6,128.9c-32.2,71.3-34.5,458-2.3,515.5c48.3,89.8,135.8,115.1,375.1,110.4C7133.2-2545.6,7147-2547.9,7200-2610z"/></g></g>
</svg>